<mxfile host="app.diagrams.net" modified="2022-02-21T10:19:54.520Z" agent="5.0 (Windows NT 10.0; Win64; x64) AppleWebKit/537.36 (KHTML, like Gecko) Chrome/98.0.4758.102 Safari/537.36" etag="HC5Vt7P0RZboCICiywuN" version="16.6.1" type="github">
  <diagram id="ETbB7pThjScWrjyHDcX5" name="Page-1">
    <mxGraphModel dx="1038" dy="547" grid="1" gridSize="10" guides="1" tooltips="1" connect="1" arrows="1" fold="1" page="1" pageScale="1" pageWidth="827" pageHeight="1169" math="0" shadow="0">
      <root>
        <mxCell id="0" />
        <mxCell id="1" parent="0" />
        <mxCell id="hG946J1BN3dbOdlKkcft-12" value="" style="shape=callout;whiteSpace=wrap;html=1;perimeter=calloutPerimeter;" parent="1" vertex="1">
          <mxGeometry x="245" y="180" width="120" height="70" as="geometry" />
        </mxCell>
        <mxCell id="hG946J1BN3dbOdlKkcft-3" value="Answer in the next &lt;b&gt;web&lt;/b&gt;" style="text;html=1;strokeColor=none;fillColor=none;align=center;verticalAlign=middle;whiteSpace=wrap;rounded=0;" parent="1" vertex="1">
          <mxGeometry x="373.5" y="317.5" width="80" height="15" as="geometry" />
        </mxCell>
        <mxCell id="hG946J1BN3dbOdlKkcft-5" value="User" style="shape=umlActor;verticalLabelPosition=bottom;verticalAlign=top;html=1;outlineConnect=0;" parent="1" vertex="1">
          <mxGeometry x="290" y="257.5" width="30" height="60" as="geometry" />
        </mxCell>
        <mxCell id="hG946J1BN3dbOdlKkcft-8" value="I want to walk &lt;b&gt;Camino de Santiago&lt;/b&gt;" style="text;html=1;strokeColor=none;fillColor=none;align=center;verticalAlign=middle;whiteSpace=wrap;rounded=0;" parent="1" vertex="1">
          <mxGeometry x="245" y="180" width="120" height="30" as="geometry" />
        </mxCell>
        <mxCell id="hG946J1BN3dbOdlKkcft-9" value="" style="ellipse;whiteSpace=wrap;html=1;" parent="1" vertex="1">
          <mxGeometry x="470" y="240" width="130" height="80" as="geometry" />
        </mxCell>
        <mxCell id="hG946J1BN3dbOdlKkcft-10" value="&lt;b&gt;&lt;font style=&quot;font-size: 16px&quot;&gt;Walking Santiago&lt;/font&gt;&lt;/b&gt;" style="text;html=1;strokeColor=none;fillColor=none;align=center;verticalAlign=middle;whiteSpace=wrap;rounded=0;" parent="1" vertex="1">
          <mxGeometry x="505" y="266.25" width="60" height="30" as="geometry" />
        </mxCell>
        <mxCell id="hG946J1BN3dbOdlKkcft-21" value="" style="verticalLabelPosition=bottom;shadow=0;dashed=0;align=center;html=1;verticalAlign=top;strokeWidth=1;shape=mxgraph.mockup.misc.loading_circle_2;pointerEvents=1;fontSize=16;" parent="1" vertex="1">
          <mxGeometry x="389" y="260" width="50" height="42.5" as="geometry" />
        </mxCell>
      </root>
    </mxGraphModel>
  </diagram>
</mxfile>
